<svg xmlns="http://www.w3.org/2000/svg" xmlns:xlink="http://www.w3.org/1999/xlink" width="87.608" height="80.606" viewBox="0 0 87.608 80.606">
  <defs>
    <clipPath id="clip-path">
      <rect id="Rectangle_3155" data-name="Rectangle 3155" width="87.608" height="80.606" fill="none"/>
    </clipPath>
  </defs>
  <g id="Group_6208" data-name="Group 6208" clip-path="url(#clip-path)">
    <path id="Path_3168" data-name="Path 3168" d="M13.179,32.747l8.764-15.185A16.244,16.244,0,0,1,35.041,10H52.57a16.251,16.251,0,0,1,13.1,7.562l8.764,15.185a16.244,16.244,0,0,1,0,15.121L65.667,63.05a16.254,16.254,0,0,1-13.1,7.555H35.041a16.244,16.244,0,0,1-13.1-7.555L13.177,47.864a16.241,16.241,0,0,1,0-15.117m-11.26-.5c-2.559,4.433-2.559,11.686,0,16.12L15.881,72.552c2.558,4.427,8.844,8.053,13.963,8.053H57.767c5.116,0,11.4-3.626,13.963-8.053L85.692,48.366c2.555-4.434,2.555-11.687,0-16.12L71.73,8.06C69.172,3.633,62.883,0,57.767,0H29.844C24.725,0,18.439,3.633,15.881,8.06Z" transform="translate(0 0)" fill="#fc0"/>
    <path id="Path_3169" data-name="Path 3169" d="M30.6,22.559A6.353,6.353,0,0,1,35.041,20H52.57a6.348,6.348,0,0,1,4.435,2.562L65.77,37.751a6.34,6.34,0,0,1,0,5.114L57.007,58.047a6.354,6.354,0,0,1-4.437,2.559H35.041A6.344,6.344,0,0,1,30.6,58.051L21.837,42.865a6.339,6.339,0,0,1,0-5.117Z" transform="translate(0 0)" fill="#fc0"/>
    <path id="Path_3170" data-name="Path 3170" d="M21.84,37.748l8.766-15.189A6.351,6.351,0,0,1,35.041,20H52.57a6.348,6.348,0,0,1,4.436,2.562L65.77,37.751a6.336,6.336,0,0,1,0,5.114L57.007,58.047a6.352,6.352,0,0,1-4.437,2.559H35.041a6.342,6.342,0,0,1-4.435-2.555L21.838,42.865a6.339,6.339,0,0,1,0-5.117m-8.661-5a16.241,16.241,0,0,0,0,15.117l8.768,15.186a16.247,16.247,0,0,0,13.1,7.555H52.57a16.259,16.259,0,0,0,13.1-7.555l8.761-15.183a16.242,16.242,0,0,0,0-15.12L65.668,17.562A16.253,16.253,0,0,0,52.57,10H35.041a16.242,16.242,0,0,0-13.1,7.562Z" transform="translate(0 0)" fill="#939597"/>
  </g>
</svg>
