<svg id="Group_4009" data-name="Group 4009" xmlns="http://www.w3.org/2000/svg" xmlns:xlink="http://www.w3.org/1999/xlink" width="81" height="81" viewBox="0 0 81 81">
  <defs>
    <clipPath id="clip-path">
      <rect id="Rectangle_2014" data-name="Rectangle 2014" width="81" height="81" fill="none"/>
    </clipPath>
  </defs>
  <g id="Group_4008" data-name="Group 4008" clip-path="url(#clip-path)">
    <path id="Path_2029" data-name="Path 2029" d="M81,40.5A40.5,40.5,0,1,1,40.5,0,40.5,40.5,0,0,1,81,40.5" fill="#e79d00"/>
    <path id="Path_2030" data-name="Path 2030" d="M61.308,38.2,46.755,23.643a2.213,2.213,0,0,0-3.119,0l-1.321,1.322a2.187,2.187,0,0,0-.644,1.559,2.234,2.234,0,0,0,.644,1.578l8.49,8.508H23.832a2.152,2.152,0,0,0-2.177,2.169v1.868a2.235,2.235,0,0,0,2.177,2.265H50.9l-8.586,8.556a2.184,2.184,0,0,0,0,3.1l1.321,1.317a2.213,2.213,0,0,0,3.12,0L61.308,41.326a2.224,2.224,0,0,0,0-3.13" fill="#fff"/>
  </g>
</svg>
