<svg id="Group_6048" data-name="Group 6048" xmlns="http://www.w3.org/2000/svg" width="46.605" height="46.605" viewBox="0 0 46.605 46.605">
  <path id="Path_3034" data-name="Path 3034" d="M46.605,23.674A23.3,23.3,0,1,0,19.662,46.693V30.41H13.745V23.674h5.916V18.54c0-5.84,3.48-9.066,8.8-9.066a35.865,35.865,0,0,1,5.217.455v5.735H30.741c-2.895,0-3.8,1.8-3.8,3.639v4.371h6.463L32.373,30.41H26.944V46.693A23.308,23.308,0,0,0,46.605,23.674" transform="translate(0 -0.372)"/>
  <path id="Path_3035" data-name="Path 3035" d="M31.438,29.791l1.033-6.736H26.009V18.684c0-1.842.9-3.639,3.8-3.639h2.938V9.31a35.84,35.84,0,0,0-5.216-.455c-5.323,0-8.8,3.226-8.8,9.067v5.133H12.81v6.736h5.916V46.075a23.544,23.544,0,0,0,7.282,0V29.791Z" transform="translate(0.935 0.247)" fill="#fff"/>
</svg>
