<svg id="Group_6049" data-name="Group 6049" xmlns="http://www.w3.org/2000/svg" width="46.605" height="46.604" viewBox="0 0 46.605 46.604">
  <path id="Path_3030" data-name="Path 3030" d="M100.694,23.3A23.3,23.3,0,1,1,77.392,0a23.3,23.3,0,0,1,23.3,23.3" transform="translate(-54.089)"/>
  <path id="Path_3031" data-name="Path 3031" d="M77.86,18.955c.383-.43.7-.867,1.091-1.237a5.99,5.99,0,0,1,4.307-1.7,10.011,10.011,0,0,1,2.708.329A5.293,5.293,0,0,1,89.724,20.3a16.528,16.528,0,0,1,.5,4.529c.005,3.219-.01,6.438,0,9.657,0,.3-.084.381-.381.379q-2.487-.021-4.974,0c-.292,0-.355-.088-.354-.364q.013-4.593,0-9.188a8.271,8.271,0,0,0-.266-2.281,2.564,2.564,0,0,0-2.821-2,3.083,3.083,0,0,0-3.24,3.077,11.476,11.476,0,0,0-.088,1.437c0,2.979,0,5.957.009,8.936,0,.3-.074.385-.377.382q-2.506-.023-5.012,0c-.267,0-.344-.07-.344-.341q.011-8.846,0-17.693c0-.292.094-.359.371-.357q2.379.018,4.759,0c.292,0,.367.091.361.368-.016.7-.005,1.41-.005,2.115" transform="translate(-52.754 1.169)" fill="#fcfcfc"/>
  <path id="Path_3032" data-name="Path 3032" d="M69.409,25.663c0,2.917-.005,5.835.006,8.753,0,.324-.078.422-.414.418-1.658-.018-3.316-.014-4.973,0-.266,0-.345-.064-.345-.339q.011-8.86,0-17.721c0-.245.059-.332.319-.33,1.682.011,3.364.014,5.045,0,.323,0,.367.122.367.4-.009,2.942-.005,5.883-.005,8.825" transform="translate(-53.389 1.2)" fill="#fcfcfc"/>
  <path id="Path_3033" data-name="Path 3033" d="M69.9,11.209A3.311,3.311,0,1,1,66.59,7.915,3.323,3.323,0,0,1,69.9,11.209" transform="translate(-53.419 0.578)" fill="#fcfcfc"/>
</svg>
