<svg xmlns="http://www.w3.org/2000/svg" width="46.605" height="46.604" viewBox="0 0 46.605 46.604">
  <g id="Group_6050" data-name="Group 6050" transform="translate(0)">
    <path id="Path_3028" data-name="Path 3028" d="M155.364,23.3A23.3,23.3,0,1,1,132.062,0a23.3,23.3,0,0,1,23.3,23.3" transform="translate(-108.759)"/>
    <path id="Path_3029" data-name="Path 3029" d="M144.427,15.037c0-.135,0-.141-.146-.139a6.415,6.415,0,0,1-1.014-.088c-1.219-.185-5.174-2.259-5.844-5.653a10.227,10.227,0,0,1-.16-1.266c0-.161,0-.161-.161-.163H132.35c-.311,0-.267-.039-.268.274q0,10.067,0,20.135a4.35,4.35,0,0,1-5.234,4.3,5.842,5.842,0,0,1-1.019-.335l-.08-.074c-.113-.094-.236-.172-.355-.254a4.283,4.283,0,0,1,.966-7.636,3.843,3.843,0,0,1,1.543-.229,4.516,4.516,0,0,1,1.008.155c.115.032.176-.008.181-.129,0-.043,0-.085,0-.128,0-1.2-.045-3.836-.052-3.842,0-.347,0-.694.009-1.041,0-.1-.047-.117-.132-.127a9.879,9.879,0,0,0-1.877-.043,9.5,9.5,0,0,0-7.964,5.572,9.328,9.328,0,0,0-.81,3.257,9.47,9.47,0,0,0,3.631,8.1,2.254,2.254,0,0,0,.494.339h0l.235.208a4.964,4.964,0,0,0,.793.485,9.592,9.592,0,0,0,11.609-2.331,9.344,9.344,0,0,0,2.287-6.208c.019-3.341,0-6.684.006-10.027,0-.079-.046-.192.042-.233.069-.031.137.06.2.1a12.3,12.3,0,0,0,4.038,1.739,11.382,11.382,0,0,0,2.569.31c.275,0,.311-.014.311-.286,0-1.187-.06-4.431-.06-4.747" transform="translate(-108.066 0.564)" fill="#fff"/>
  </g>
</svg>
