<svg xmlns="http://www.w3.org/2000/svg" xmlns:xlink="http://www.w3.org/1999/xlink" width="189.255" height="174.126" viewBox="0 0 189.255 174.126">
  <defs>
    <clipPath id="clip-path">
      <rect id="Rectangle_3184" data-name="Rectangle 3184" width="189.255" height="174.126" fill="none"/>
    </clipPath>
    <clipPath id="clip-path-2">
      <rect id="Rectangle_4337" data-name="Rectangle 4337" width="90.682" height="63.877" fill="none"/>
    </clipPath>
  </defs>
  <g id="Group_8488" data-name="Group 8488" transform="translate(-1302 -926)">
    <g id="Group_6258" data-name="Group 6258" transform="translate(1294.255 914)">
      <g id="Group_6253" data-name="Group 6253">
        <g id="Group_6252" data-name="Group 6252" transform="translate(7.745 12)" clip-path="url(#clip-path)">
          <path id="Path_3177" data-name="Path 3177" d="M64.469,174.126c-11.06,0-24.633-7.834-30.162-17.412L4.147,104.477c-5.529-9.577-5.529-25.249,0-34.826l30.16-52.239C39.836,7.834,53.409,0,64.469,0h60.318c11.059,0,24.632,7.834,30.162,17.412l30.159,52.239c5.53,9.577,5.53,25.249,0,34.826l-30.159,52.237c-5.53,9.578-19.1,17.412-30.162,17.412Z" transform="translate(0)" fill="#fc0"/>
        </g>
      </g>
    </g>
    <g id="Group_8448" data-name="Group 8448" transform="translate(1351.287 982)">
      <g id="Group_8448-2" data-name="Group 8448" transform="translate(0 0)" clip-path="url(#clip-path-2)">
        <path id="Path_4293" data-name="Path 4293" d="M6.019,63.706l-1.222-.4-.357-.14h0l-.313-.184A8.728,8.728,0,0,1,.905,59.6l-.367-.518A13.084,13.084,0,0,1,0,54.988q.032-23.636,0-47.271A7.842,7.842,0,0,1,5.176.557,12.521,12.521,0,0,1,8.655.024q36.6-.045,73.2-.016a8.329,8.329,0,0,1,7.118,3.179A16.2,16.2,0,0,1,90,4.971c.048.063.095.127.141.19q.269.7.538,1.4V56.424q-.081.537-.162,1.072a8.917,8.917,0,0,1-4.165,5.564,4.8,4.8,0,0,1-2.56.783q-38.483.061-76.965.032c-.147,0-.293-.02-.44-.032l-.372-.137m8.5-45.422c-.234-.215-.476-.424-.7-.647q-3.621-3.591-7.238-7.187L5.31,9.11c.022.48.035.742.047,1-.01.207-.029.413-.029.62q0,21.689,0,43.379c0,.159.014.316.022.475l.256.168,6.43-6.678a2,2,0,0,0,1.607-1.608c.925-.889,1.863-1.765,2.773-2.669q3.171-3.154,6.32-6.328l5.453-5.459c-.249-.3-.449-.585-.69-.829q-2.714-2.735-5.443-5.456c-1.792-1.776-3.6-3.536-5.4-5.3a3.36,3.36,0,0,0-2.138-2.141m64.5,30.326,6.292,6.2V9.072c-.325.307-.532.493-.731.69q-4.11,4.083-8.217,8.168a3.923,3.923,0,0,0-2.315,2.318L62.493,31.916c1.937,2.02,3.8,4.02,5.72,5.957,2.865,2.888,5.775,5.733,8.663,8.6a3.36,3.36,0,0,0,2.138,2.141M24.473,43.125a3.925,3.925,0,0,0-2.315,2.318c-.908.931-1.81,1.871-2.728,2.794Q14.588,53.1,9.736,57.956c-.166.168-.313.354-.487.552H81.67c-.5-.431-.842-.7-1.148-1Q75.5,52.456,70.487,47.394l-.54-.367-1.585-1.584a2,2,0,0,0-1.607-1.608c-.215-.195-.44-.381-.646-.587q-3.5-3.506-7-7.024c-.372-.376-.631-.52-1.071-.065-1.337,1.386-2.715,2.733-4.077,4.094a4.3,4.3,0,0,1-.579.541,13.671,13.671,0,0,1-9.4,2.7,13.259,13.259,0,0,1-7.533-3.373c-1.516-1.344-2.913-2.824-4.364-4.243l-.937.676c-.234.215-.473.424-.7.646q-2.991,2.961-5.979,5.926M28.015,24.3c.213.194.436.38.642.583q3.994,3.968,7.986,7.94l2.678,2.681.344.343.192.139a7.943,7.943,0,0,0,11.7-.837q.979-.981,1.96-1.964c.237-.216.478-.424.7-.649q4.5-4.472,9-8.947a2.866,2.866,0,0,0,1.961-1.963c.842-.806,1.7-1.6,2.524-2.42Q74.374,12.54,81.03,5.854a2.731,2.731,0,0,0,.3-.493H9.307a1.544,1.544,0,0,0,.539.684Q15.8,12,21.738,17.959c.345.348.612.775.96,1.121.869.864,1.762,1.7,2.647,2.548.245,1.222,1.405,1.688,2.1,2.536.1.12.373.1.566.137" transform="translate(0 0)" fill="#fff"/>
      </g>
    </g>
  </g>
</svg>
