<svg xmlns="http://www.w3.org/2000/svg" xmlns:xlink="http://www.w3.org/1999/xlink" width="188.339" height="173.283" viewBox="0 0 188.339 173.283">
  <defs>
    <clipPath id="clip-path">
      <rect id="Rectangle_3187" data-name="Rectangle 3187" width="188.339" height="173.283" fill="none"/>
    </clipPath>
    <clipPath id="clip-path-2">
      <rect id="Rectangle_4339" data-name="Rectangle 4339" width="91.544" height="81.689" transform="translate(0 0)" fill="none"/>
    </clipPath>
  </defs>
  <g id="Group_8487" data-name="Group 8487" transform="translate(-865.831 -926)">
    <g id="Group_6259" data-name="Group 6259" transform="translate(865.831 926)">
      <g id="Group_6260" data-name="Group 6260">
        <g id="Group_6259-2" data-name="Group 6259" clip-path="url(#clip-path)">
          <path id="Path_3179" data-name="Path 3179" d="M64.157,173.283c-11.007,0-24.514-7.8-30.016-17.328L4.127,103.971c-5.5-9.531-5.5-25.126,0-34.657L34.141,17.328C39.643,7.8,53.15,0,64.157,0h60.026C135.189,0,148.7,7.8,154.2,17.328l30.013,51.986c5.5,9.531,5.5,25.126,0,34.657L154.2,155.955c-5.5,9.532-19.011,17.328-30.016,17.328Z" transform="translate(0)" fill="#fc0"/>
        </g>
      </g>
    </g>
    <g id="Group_8452" data-name="Group 8452" transform="translate(1074 1072)">
      <g id="Group_8451" data-name="Group 8451" transform="translate(-159.772 -104)" clip-path="url(#clip-path-2)">
        <path id="Path_4297" data-name="Path 4297" d="M73.922,20l1.254.968c.186.164.373.329.558.494l.663.363.209.144,1.255.968.558.494,1.411.939.558.494,2.127,1.475q.279.247.559.494l.662.363.209.144q.627.484,1.256.968l.556.495.663.363c.071.048.141.095.21.143l1.255.968.557.495,1.412.939.557.493a2.033,2.033,0,0,1,1.027,2.514l-.12.371q-.466.611-.934,1.219l-2.32-.015-.373-.137-.35-.166v-.581l-.357.4-.9-1.07c-.018-.363.015-.8-.539-.357q-1.16-.834-2.319-1.666l-.365-.3-.893-.6-.2-.139-.513-.393-.207-.145q-.168-.165-.334-.332c-.078-.271-.03-.727-.537-.36l-.892-.6-.2-.14-.335-.337c-.018-.363.012-.8-.539-.355l-.178-.177c-.078-.271-.031-.728-.538-.36q-.713-.538-1.43-1.076c-.017-.364.013-.8-.538-.357l-.18-.176-.727-.553-1.241-.881c-.017-.362.02-.805-.537-.359q-.447-.3-.891-.6c-.069-.046-.136-.092-.2-.139l-.513-.393-.207-.144-.334-.333c-.076-.271-.031-.727-.535-.36l-.893-.6-.192-.131q-1.825-1.463-3.651-2.924l-.023-.024c-.75-.493-1.494-1-2.252-1.475-.453-.288-.931-.541-1.4-.809L61.6,17c-.131-.132-.263-.264-.394-.4l-.195-.134-.516-.4-.367-.3L58.7,14.688c-.017-.364.012-.8-.538-.355l-.351-.233c-.121-.1-.244-.2-.365-.3L56.018,12.72c-.018-.364.014-.8-.539-.357l-.349-.232-.366-.3q-.717-.536-1.432-1.073c-.017-.362.021-.8-.536-.359L51.188,9.262l-.195-.135-.516-.4c-.123-.1-.244-.2-.366-.3L48.5,7.293,48.3,7.148l-.5-.389-.367-.3a5.75,5.75,0,0,1-1.149-.77c-.478-.517-.806-.284-1.172.078-.069.046-.137.091-.2.137l-.512.393-.2.134-.677.373c-.12.119-.243.238-.363.356q-.726.553-1.45,1.106c-.068.049-.139.1-.209.145l-.662.363-.365.355-2.32,1.614-.364.356-1.6,1.076-.365.356-1.448,1.107-.2.134-.674.373-.365.356L31.68,15.6l-.209.144-.663.363-.365.356c-.644.366-.98,1.257-1.931,1.122-.078-.011-.195.263-.294.4l-.023.023-.452.09-.141.144-.576.759-.208.14-1.029.709-.132-.13c-.008.046-.015.091-.022.136l-.579.581-.2.136-1.29.815-.021.022-.453.09-.139.144-1.294,1.292-.209.144Q19.773,24.254,18.1,25.42c-.12.119-.243.237-.364.356l-1.6,1.076-.363.356c-.483.369-.968.738-1.45,1.107l-.208.144-.665.363-.363.356c-.484.368-.965.737-1.449,1.106l-.208.144-.663.363-.365.356-2.32,1.614c-.123.118-.243.237-.365.355L6.106,34.193c-.12.119-.242.237-.363.356a21.7,21.7,0,0,1-2.508,1.792c-.429.228-1.085.032-1.637.028-.06-.463-.2-.765-.71-.373l-.56-.724c.45-.517.053-.528-.327-.55V33.29l3.213-2.705c.55.44.522.008.539-.357q.714-.539,1.43-1.075l.366-.306.349-.231c.55.44.523.009.54-.357q.712-.539,1.43-1.076l.365-.305.518-.4c.064-.045.131-.09.2-.135l1.605-1.131c.555.442.521,0,.537-.36l2.148-1.61c.55.441.522.009.538-.357l1.43-1.075.367-.305.349-.232c.55.44.522.009.539-.357l1.43-1.075.366-.305.5-.388.21-.145,1.6-1.132c.565.445.521,0,.535-.365l2.15-1.6c.55.44.522.008.538-.357l1.43-1.075c.123-.1.244-.2.368-.306L27.915,12.5l.366-.305c.173-.132.344-.265.517-.4l.2-.135,1.6-1.131c.555.442.521,0,.537-.36l.332-.333.211-.145,1.6-1.132c.549.441.521.009.538-.357l1.431-1.075c.121-.1.244-.2.366-.3l.35-.232c.55.44.522.009.537-.357q.717-.537,1.431-1.075l.367-.305.515-.4c.067-.044.132-.089.2-.134l1.6-1.132c.556.443.522,0,.537-.36l.333-.332.209-.145,1.6-1.132c.553.441.523.007.54-.358,1.535-1.224,2.372-1.117,4.119.12.679.48,1.326,1,1.986,1.5.123.119.243.238.366.356q1.158.807,2.32,1.613L53,4.816l.676.373.2.135,1.447,1.105.366.356Q57.564,8.1,59.444,9.408c.184.129.355.281.531.423.122.118.245.237.365.356L62.661,11.8l.365.356.662.363.209.144,1.449,1.106c.121.119.244.238.364.357l.676.373.2.133,3.234,2.519.548.376L72.492,19l.557.494.676.373.2.134" fill="#fff"/>
        <path id="Path_4298" data-name="Path 4298" d="M0,34.722c.38.022.777.033.329.55L0,34.9v-.179" fill="#fff"/>
        <path id="Path_4299" data-name="Path 4299" d="M76.754,39.375a2.436,2.436,0,0,1,1.084-2.34,2.394,2.394,0,0,1,3.606,1.621,11.183,11.183,0,0,1,.1,1.238q.007,19.29-.014,38.582a5.4,5.4,0,0,1-.418,1.936,1.9,1.9,0,0,1-1.926,1.242c-7.995-.013-15.99,0-23.985-.013a2.163,2.163,0,0,1-2.222-2.3c-.006-7.28.029-14.561-.029-21.842a8.525,8.525,0,0,0-1.112-5.025,6.749,6.749,0,0,0-5.659-3.259A7.208,7.208,0,0,0,41.7,50.336l-.209.144a7.406,7.406,0,0,0-2.851,6.184c.076,7.365.029,14.731.026,22.1a2.751,2.751,0,0,1-2.917,2.928c-7.631-.087-15.263-.034-22.895-.037-2.062,0-2.764-.739-2.763-2.785q.01-19.77,0-39.54A2.564,2.564,0,0,1,11.3,36.954a2.2,2.2,0,0,1,2.535.179c.483.391.595,1.24.872,1.884l.132.366q.01,9.93.021,19.86.006,8.321,0,16.641v.994h19.05v-.969c0-6.233.054-12.467-.033-18.7a13.11,13.11,0,0,1,.738-5.232,11.445,11.445,0,0,1,7.349-7.012A12.075,12.075,0,0,1,54.959,48.62,11.255,11.255,0,0,1,57.623,55.9c.07,6.676.076,13.352.108,20.029,0,.293,0,.587,0,.93.305.021.536.051.766.051q8.721,0,17.442,0a3.814,3.814,0,0,0,.669-.117c.048-.059.1-.117.146-.176.009-1.369.026-2.738.027-4.106q0-15.987,0-31.972c0-.327-.018-.653-.027-.98v-.184" fill="#fff"/>
        <path id="Path_4300" data-name="Path 4300" d="M.887,36c.508-.392.651-.09.71.373L.887,36" fill="#fff"/>
        <path id="Path_4301" data-name="Path 4301" d="M74.62,26.315l.727.554-.727-.554" fill="#fff"/>
        <path id="Path_4302" data-name="Path 4302" d="M75.527,27.044c.552-.444.521-.007.538.356l-.538-.356" fill="#fff"/>
        <path id="Path_4303" data-name="Path 4303" d="M78.212,29.014c.551-.443.521-.008.538.356l-.538-.356" fill="#fff"/>
        <path id="Path_4304" data-name="Path 4304" d="M58.165,14.332c.55-.442.521-.007.538.356l-.538-.356" fill="#fff"/>
        <path id="Path_4305" data-name="Path 4305" d="M72.842,25.075c.557-.445.52,0,.537.359Z" fill="#fff"/>
        <path id="Path_4306" data-name="Path 4306" d="M55.48,12.363c.552-.443.521-.007.538.356l-.538-.356" fill="#fff"/>
        <path id="Path_4307" data-name="Path 4307" d="M85.551,34.385c.554-.444.521-.006.538.358l-.538-.358" fill="#fff"/>
        <path id="Path_4308" data-name="Path 4308" d="M52.795,10.394c.557-.445.52,0,.537.359l-.537-.359" fill="#fff"/>
        <path id="Path_4309" data-name="Path 4309" d="M70.157,23.1c.505-.367.459.089.537.36l-.537-.36" fill="#fff"/>
        <path id="Path_4310" data-name="Path 4310" d="M77.5,28.476c.506-.366.459.089.536.361-.178-.121-.357-.24-.536-.361" fill="#fff"/>
        <path id="Path_4311" data-name="Path 4311" d="M80.181,30.446c.5-.367.459.089.537.36l-.537-.36" fill="#fff"/>
        <path id="Path_4312" data-name="Path 4312" d="M82.866,32.415l.366.3-.366-.3" fill="#fff"/>
        <path id="Path_4313" data-name="Path 4313" d="M35.813,12.527l.364-.356-.364.356" fill="#fff"/>
        <path id="Path_4314" data-name="Path 4314" d="M33.128,14.5l.364-.356-.364.356" fill="#fff"/>
        <path id="Path_4315" data-name="Path 4315" d="M86.985,35.812l.357-.4v.581l-.357-.182" fill="#fff"/>
        <path id="Path_4316" data-name="Path 4316" d="M50.11,8.424l.366.3-.366-.3" fill="#fff"/>
        <path id="Path_4317" data-name="Path 4317" d="M60.134,15.765l.366.3-.366-.3" fill="#fff"/>
        <path id="Path_4318" data-name="Path 4318" d="M30.443,16.466l.365-.356-.365.356" fill="#fff"/>
        <path id="Path_4319" data-name="Path 4319" d="M10.4,31.147l.364-.356-.364.356" fill="#fff"/>
        <path id="Path_4320" data-name="Path 4320" d="M57.449,13.8l.366.3-.366-.3" fill="#fff"/>
        <path id="Path_4321" data-name="Path 4321" d="M54.764,11.826l.366.3-.366-.3" fill="#fff"/>
        <path id="Path_4322" data-name="Path 4322" d="M43.151,7.156l.364-.356-.364.356" fill="#fff"/>
        <path id="Path_4323" data-name="Path 4323" d="M13.081,29.178l.364-.356Z" fill="#fff"/>
        <path id="Path_4324" data-name="Path 4324" d="M7.71,33.116l.365-.356-.365.356" fill="#fff"/>
        <path id="Path_4325" data-name="Path 4325" d="M37.781,11.1l.365-.356-.365.356" fill="#fff"/>
        <path id="Path_4326" data-name="Path 4326" d="M47.425,6.455l.366.3-.366-.3" fill="#fff"/>
        <path id="Path_4327" data-name="Path 4327" d="M5.742,34.549l.364-.356-.364.356" fill="#fff"/>
        <path id="Path_4328" data-name="Path 4328" d="M17.734,25.776l.365-.356-.365.356" fill="#fff"/>
        <path id="Path_4329" data-name="Path 4329" d="M15.766,27.208l.364-.356-.364.356" fill="#fff"/>
        <path id="Path_4330" data-name="Path 4330" d="M40.466,9.125l.364-.356-.364.356" fill="#fff"/>
        <path id="Path_4331" data-name="Path 4331" d="M14.84,39.383l-.132-.366.132.366" fill="#fff"/>
        <path id="Path_4332" data-name="Path 4332" d="M87.692,36.16l.373.137-.373-.137" fill="#fff"/>
        <path id="Path_4333" data-name="Path 4333" d="M76.754,39.375v.184l-.215-.092.215-.092" fill="#fff"/>
        <path id="Path_4334" data-name="Path 4334" d="M25.634,19.863c.007-.045.014-.09.022-.136l.133.13c-.052,0-.1.006-.155.006" fill="#fff"/>
        <path id="Path_4335" data-name="Path 4335" d="M76.754,76.617l-.146.176.146-.176" fill="#fff"/>
        <path id="Path_4336" data-name="Path 4336" d="M71.028,23.8l.207.144-.207-.144" fill="#fff"/>
        <path id="Path_4337" data-name="Path 4337" d="M21.447,23.087l.209-.143-.209.143" fill="#fff"/>
        <path id="Path_4338" data-name="Path 4338" d="M69.074,22.375l.191.131-.191-.131" fill="#fff"/>
        <path id="Path_4339" data-name="Path 4339" d="M23.563,21.4l.126.088-.147-.066.021-.022" fill="#fff"/>
        <path id="Path_4340" data-name="Path 4340" d="M22.949,21.651l.14-.144-.14.144" fill="#fff"/>
        <path id="Path_4341" data-name="Path 4341" d="M14.108,28.458l.209-.143-.209.143" fill="#fff"/>
        <path id="Path_4342" data-name="Path 4342" d="M24.852,20.58l.2-.136-.2.136" fill="#fff"/>
        <path id="Path_4343" data-name="Path 4343" d="M65.421,19.451l-.1.116c.026-.047.052-.094.079-.14l.023.024" fill="#fff"/>
        <path id="Path_4344" data-name="Path 4344" d="M26.818,19.148l.208-.14-.208.14" fill="#fff"/>
        <path id="Path_4345" data-name="Path 4345" d="M79.086,29.706l.2.14-.2-.14" fill="#fff"/>
        <path id="Path_4346" data-name="Path 4346" d="M28.218,17.992l.126.089-.148-.066.022-.023" fill="#fff"/>
        <path id="Path_4347" data-name="Path 4347" d="M11.423,30.428l.209-.144-.209.144" fill="#fff"/>
        <path id="Path_4348" data-name="Path 4348" d="M27.6,18.249l.141-.144-.141.144" fill="#fff"/>
        <path id="Path_4349" data-name="Path 4349" d="M61.6,17c.048.049.1.1.144.144-.048-.048-.1-.095-.144-.144" fill="#fff"/>
        <path id="Path_4350" data-name="Path 4350" d="M61.016,16.468l.195.134-.195-.134" fill="#fff"/>
        <path id="Path_4351" data-name="Path 4351" d="M81.051,31.138l.207.144Z" fill="#fff"/>
        <path id="Path_4352" data-name="Path 4352" d="M81.771,31.676l.2.139-.2-.139" fill="#fff"/>
        <path id="Path_4353" data-name="Path 4353" d="M31.47,15.747l.209-.144-.209.144" fill="#fff"/>
        <path id="Path_4354" data-name="Path 4354" d="M34.168,13.768l.2-.134-.2.134" fill="#fff"/>
        <path id="Path_4355" data-name="Path 4355" d="M50.993,9.127l.195.134-.195-.134" fill="#fff"/>
        <path id="Path_4356" data-name="Path 4356" d="M41.494,8.407l.209-.144-.209.144" fill="#fff"/>
        <path id="Path_4357" data-name="Path 4357" d="M48.3,7.148l.207.144L48.3,7.148" fill="#fff"/>
        <path id="Path_4358" data-name="Path 4358" d="M44.191,6.427l.2-.134-.2.134" fill="#fff"/>
        <path id="Path_4359" data-name="Path 4359" d="M44.9,5.9c.067-.045.135-.091.2-.136-.069.045-.137.091-.2.136" fill="#fff"/>
        <path id="Path_4360" data-name="Path 4360" d="M41.494,50.48l.209-.145-.209.145" fill="#fff"/>
        <path id="Path_4361" data-name="Path 4361" d="M71.748,24.335l.2.139-.2-.139" fill="#fff"/>
        <path id="Path_4362" data-name="Path 4362" d="M11.09,24.854c-.016.364.018.8-.537.36l.537-.36" fill="#fff"/>
        <path id="Path_4363" data-name="Path 4363" d="M31.137,10.173c-.016.364.018.8-.538.36l.538-.36" fill="#fff"/>
        <path id="Path_4364" data-name="Path 4364" d="M13.776,22.887c-.016.365.012.8-.539.357l.539-.357" fill="#fff"/>
        <path id="Path_4365" data-name="Path 4365" d="M41.16,2.832c-.016.364.019.8-.537.36l.537-.36" fill="#fff"/>
        <path id="Path_4366" data-name="Path 4366" d="M36.508,6.237c-.016.365.011.8-.539.357l.539-.357" fill="#fff"/>
        <path id="Path_4367" data-name="Path 4367" d="M6.437,28.259c-.016.366.011.8-.539.357l.539-.357" fill="#fff"/>
        <path id="Path_4368" data-name="Path 4368" d="M16.461,20.918c-.016.366.011.8-.539.357l.539-.357" fill="#fff"/>
        <path id="Path_4369" data-name="Path 4369" d="M43.846.865c-.016.365.013.8-.538.358l.538-.358" fill="#fff"/>
        <path id="Path_4370" data-name="Path 4370" d="M3.752,30.228c-.016.365.012.8-.539.357l.539-.357" fill="#fff"/>
        <path id="Path_4371" data-name="Path 4371" d="M23.8,15.547c-.016.365.012.8-.539.357l.539-.357" fill="#fff"/>
        <path id="Path_4372" data-name="Path 4372" d="M33.823,8.206c-.016.365.012.8-.539.357l.539-.357" fill="#fff"/>
        <path id="Path_4373" data-name="Path 4373" d="M21.111,17.508c-.015.362.03.81-.535.365l.535-.365" fill="#fff"/>
        <path id="Path_4374" data-name="Path 4374" d="M85.758,28.806l-.558-.494.558.494" fill="#fff"/>
        <path id="Path_4375" data-name="Path 4375" d="M90.412,32.208l-.558-.493.558.493" fill="#fff"/>
        <path id="Path_4376" data-name="Path 4376" d="M80.388,24.868l-.558-.493.558.493" fill="#fff"/>
        <path id="Path_4377" data-name="Path 4377" d="M78.419,23.435l-.558-.495.558.495" fill="#fff"/>
        <path id="Path_4378" data-name="Path 4378" d="M83.073,26.837l-.558-.494.558.494" fill="#fff"/>
        <path id="Path_4379" data-name="Path 4379" d="M75.734,21.466l-.558-.495.558.495" fill="#fff"/>
        <path id="Path_4380" data-name="Path 4380" d="M73.049,19.5,72.491,19l.558.494" fill="#fff"/>
        <path id="Path_4381" data-name="Path 4381" d="M88.443,30.776l-.558-.495.558.495" fill="#fff"/>
        <path id="Path_4382" data-name="Path 4382" d="M63.026,12.156l-.365-.356.365.356" fill="#fff"/>
        <path id="Path_4383" data-name="Path 4383" d="M50.317,2.846l-.365-.356.365.356" fill="#fff"/>
        <path id="Path_4384" data-name="Path 4384" d="M70.365,17.527l-.549-.376Z" fill="#fff"/>
        <path id="Path_4385" data-name="Path 4385" d="M28.281,12.2l-.367.305.367-.305" fill="#fff"/>
        <path id="Path_4386" data-name="Path 4386" d="M35.62,6.826l-.367.3.367-.3" fill="#fff"/>
        <path id="Path_4387" data-name="Path 4387" d="M18.257,19.538l-.367.305.367-.305" fill="#fff"/>
        <path id="Path_4388" data-name="Path 4388" d="M5.549,28.847l-.367.305.367-.305" fill="#fff"/>
        <path id="Path_4389" data-name="Path 4389" d="M55.687,6.785l-.365-.356.365.356" fill="#fff"/>
        <path id="Path_4390" data-name="Path 4390" d="M65.711,14.126l-.365-.356.365.356" fill="#fff"/>
        <path id="Path_4391" data-name="Path 4391" d="M15.573,21.507l-.368.305.368-.305" fill="#fff"/>
        <path id="Path_4392" data-name="Path 4392" d="M60.341,10.187l-.365-.356.365.356" fill="#fff"/>
        <path id="Path_4393" data-name="Path 4393" d="M8.234,26.878l-.367.305.367-.305" fill="#fff"/>
        <path id="Path_4394" data-name="Path 4394" d="M38.305,4.857l-.367.305.367-.305" fill="#fff"/>
        <path id="Path_4395" data-name="Path 4395" d="M53,4.816l-.365-.356L53,4.816" fill="#fff"/>
        <path id="Path_4396" data-name="Path 4396" d="M25.6,14.166l-.367.3.367-.3" fill="#fff"/>
        <path id="Path_4397" data-name="Path 4397" d="M91.319,35.093c.04-.124.08-.247.119-.371-.039.124-.079.247-.119.371" fill="#fff"/>
        <path id="Path_4398" data-name="Path 4398" d="M8.947,26.345l-.2.135.2-.135" fill="#fff"/>
        <path id="Path_4399" data-name="Path 4399" d="M76.606,21.973l-.209-.144.209.144" fill="#fff"/>
        <path id="Path_4400" data-name="Path 4400" d="M83.945,27.344l-.209-.143.209.143" fill="#fff"/>
        <path id="Path_4401" data-name="Path 4401" d="M73.922,20l-.2-.134.2.134" fill="#fff"/>
        <path id="Path_4402" data-name="Path 4402" d="M18.971,19l-.211.145L18.971,19" fill="#fff"/>
        <path id="Path_4403" data-name="Path 4403" d="M86.63,29.313l-.209-.144.209.144" fill="#fff"/>
        <path id="Path_4404" data-name="Path 4404" d="M66.583,14.632l-.2-.134.2.134" fill="#fff"/>
        <path id="Path_4405" data-name="Path 4405" d="M63.9,12.663l-.209-.144.209.144" fill="#fff"/>
        <path id="Path_4406" data-name="Path 4406" d="M28.994,11.664l-.2.135.2-.135" fill="#fff"/>
        <path id="Path_4407" data-name="Path 4407" d="M31.679,9.695l-.211.145.211-.145" fill="#fff"/>
        <path id="Path_4408" data-name="Path 4408" d="M53.874,5.324l-.2-.135Z" fill="#fff"/>
        <path id="Path_4409" data-name="Path 4409" d="M39.018,4.324l-.2.135.2-.135" fill="#fff"/>
        <path id="Path_4410" data-name="Path 4410" d="M41.7,2.355l-.211.145.211-.145" fill="#fff"/>
      </g>
    </g>
  </g>
</svg>
