<svg xmlns="http://www.w3.org/2000/svg" xmlns:xlink="http://www.w3.org/1999/xlink" width="189.255" height="174.126" viewBox="0 0 189.255 174.126">
  <defs>
    <clipPath id="clip-path">
      <rect id="Rectangle_3184" data-name="Rectangle 3184" width="189.255" height="174.126" fill="none"/>
    </clipPath>
    <clipPath id="clip-path-2">
      <rect id="Rectangle_4338" data-name="Rectangle 4338" width="90.698" height="90.766" transform="translate(0 0)" fill="none"/>
    </clipPath>
  </defs>
  <g id="Group_8486" data-name="Group 8486" transform="translate(-438 -926)">
    <g id="Group_6256" data-name="Group 6256" transform="translate(431.254 928)">
      <g id="Group_6253" data-name="Group 6253" transform="translate(6.746 -2)">
        <g id="Group_6252" data-name="Group 6252" clip-path="url(#clip-path)">
          <path id="Path_3177" data-name="Path 3177" d="M64.469,174.126c-11.06,0-24.633-7.834-30.162-17.412L4.147,104.477c-5.529-9.577-5.529-25.249,0-34.826l30.16-52.239C39.836,7.834,53.409,0,64.469,0h60.318c11.059,0,24.632,7.834,30.162,17.412l30.159,52.239c5.53,9.577,5.53,25.249,0,34.826l-30.159,52.237c-5.53,9.578-19.1,17.412-30.162,17.412Z" transform="translate(0)" fill="#fc0"/>
        </g>
      </g>
    </g>
    <g id="Group_8450" data-name="Group 8450" transform="translate(487.278 969)">
      <g id="Group_8449" data-name="Group 8449" clip-path="url(#clip-path-2)">
        <path id="Path_4294" data-name="Path 4294" d="M50.9.13c1.857.453,3.72.88,5.568,1.369a25.157,25.157,0,0,1,3.863,1.192,48.733,48.733,0,0,1,5.782,2.973c2.617,1.62,5.192,3.332,7.634,5.2a37.316,37.316,0,0,1,4.26,4.159c1.181,1.253,2.295,2.575,3.372,3.919a44.78,44.78,0,0,1,6.084,10.444,44.413,44.413,0,0,1,2.89,9.815,4.135,4.135,0,0,0,.343.833v1.417a12.59,12.59,0,0,1-1.175,1.035c-1.935,1.332-3.729-.019-4.153-1.889-.529-2.326-1.058-4.663-1.8-6.927a44.374,44.374,0,0,0-2.2-5.005A36.788,36.788,0,0,0,74.72,19.01c-1.059-1.121-2.17-2.193-3.278-3.266a7.362,7.362,0,0,0-.944-.67l-.365-.364a35.329,35.329,0,0,0-8.3-5.574c-.9-.455-1.807-.895-2.711-1.342.006-.1.012-.206.021-.377l-.289.276-1.628-.417L57.1,7.06c-.021.07-.043.141-.064.212a14.307,14.307,0,0,1-3.5-1.131c-1.208-.763-2.531-.6-3.772-.944A2.719,2.719,0,0,1,48.209.856,5.721,5.721,0,0,1,49.423,0h.886L50.9.13" fill="#fff"/>
        <path id="Path_4295" data-name="Path 4295" d="M.647,20.643a14.668,14.668,0,0,1,3.781-6.2q1.95-1.986,3.9-3.966.271-.273.544-.544c.944-.867,1.844-1.79,2.842-2.589a8.65,8.65,0,0,1,6.187-1.912c2.96.167,4.89,1.776,6.8,3.732,2.936,3.01,6.038,5.858,8.961,8.881a13.755,13.755,0,0,1,3.064,4.439,7.717,7.717,0,0,1-1.374,8.113c-1.379,1.7-2.942,3.25-4.458,4.833-.7.736-1.518,1.369-2.225,2.1a.96.96,0,0,0-.138.86A45.766,45.766,0,0,0,33.692,46.4c1.224,1.656,2.769,3,4.046,4.6l.544.545,5.264,4.787c.068.049.137.1.206.145l.678.564.207.146L52.312,62.4c2.094-2.1,4-4.021,5.925-5.932A9.9,9.9,0,0,1,63.5,53.4a8.051,8.051,0,0,1,7.109,1.925c3.259,3.07,6.412,6.252,9.6,9.4.619.611,1.2,1.264,1.793,1.9l.364.368a11.656,11.656,0,0,1,1.691,2.006,10.69,10.69,0,0,1,.79,2.674c.736,3.342-.593,6.03-2.793,8.389-1.006,1.078-2.139,2.037-3.177,3.087C77.7,84.326,76.59,85.582,75.4,86.761a13.375,13.375,0,0,1-7.617,3.778c-.988.15-1.94.418-2.758-.4-.59.947-1.474.558-2.212.511a18.669,18.669,0,0,1-3.4-.5c-1.183-.3-2.316-.8-3.471-1.215l-.024-.136-.134.13c-1.165-.315-2.36-.549-3.487-.964-1.517-.559-2.981-1.259-4.468-1.9l-.371-.137c-1.136-.6-2.283-1.173-3.4-1.8a10.4,10.4,0,0,1-1.17-.873l-.371-.137c-1.265-.7-2.585-1.331-3.786-2.134-2.69-1.8-5.34-3.656-7.966-5.546-.937-.675-1.757-1.513-2.631-2.276l-.141-.179A15.164,15.164,0,0,1,26.739,72c-1.993-1.909-3.992-3.814-5.939-5.769-.956-.959-1.81-2.021-2.7-3.041a90.229,90.229,0,0,1-7.3-9.47,18.031,18.031,0,0,0-1.2-1.461l.255-.177L9.6,51.9l-.935-1.057.29-.206-.419-.155q-.795-1.327-1.589-2.656l.252-.176-.249-.179Q5.153,43.584,3.36,39.694l-.143-.189-.211-.7c-.047-.063-.094-.125-.142-.187L2.272,37.2l-.128-.362c-.422-1.554-.891-3.1-1.254-4.666-.3-1.305-.523-2.634-.7-3.963a14.431,14.431,0,0,1-.167-2.954c.114-1.533.388-3.054.595-4.58l.15.058-.121-.091M62.338,59.69l.007-.007-6.731,6.728a3.621,3.621,0,0,1-3.5,1.227,15.217,15.217,0,0,1-2.692-1.212A48.475,48.475,0,0,1,37.85,58.25c-2.494-2.306-4.757-4.868-7.065-7.369a43.708,43.708,0,0,1-6.954-10.315,6.1,6.1,0,0,1-.311-1.061c-.045-.123-.09-.246-.136-.369a3.183,3.183,0,0,1,.389-4.008c2.2-2.214,4.4-4.436,6.632-6.618,1.2-1.176,2.039-2.452,1.653-4.228-.048-.063-.095-.126-.143-.188a19.227,19.227,0,0,0-1.64-2.2Q25.22,16.752,20.081,11.7a3.446,3.446,0,0,0-3.842-1.026,7.473,7.473,0,0,0-2.257,1.51c-2.045,1.955-4.015,3.99-6.024,5.984a4.65,4.65,0,0,1-.7.482l-.128.016.129.111c-.045.692-.547,1.05-1.033,1.421v.355a7.659,7.659,0,0,0-.382.849A14.084,14.084,0,0,0,5.281,27.5,33.241,33.241,0,0,0,7.6,36.384c.465,1.1,1.022,2.171,1.495,3.272.378.881.693,1.788,1.036,2.684l.14.193q.714,1.313,1.429,2.625l.308.37,1.49,2.833c.043.12.087.24.13.361q3.747,5.044,7.495,10.09l.124.361c.551.688,1.061,1.416,1.664,2.056.771.819,1.617,1.568,2.431,2.347l.543.544c1,.979,1.973,1.991,3.012,2.928,1.316,1.187,2.688,2.312,4.035,3.464l.194.138q1.96,1.488,3.922,2.974a74.438,74.438,0,0,0,9.642,6.064c1.565.841,3.18,1.59,4.772,2.38l.025.03.6.265.351.147,9.034,2.846h.708c1.64.014,3.285.115,4.917.007a13.9,13.9,0,0,0,2.7-.719l.148-.142c1.094-.94,2.22-1.845,3.27-2.831.831-.779,1.556-1.671,2.352-2.49.95-.978,1.941-1.917,2.887-2.9,2.013-2.089,1.73-3.688.368-5.581-.131-.405-.144-.925-.411-1.2q-4.729-4.812-9.54-9.542c-.216-.212-.682-.169-1.031-.244a3.511,3.511,0,0,0-5.309-.169l-.192.14" fill="#fff"/>
        <path id="Path_4296" data-name="Path 4296" d="M57.573,24.661c-.881-.392-1.758-.794-2.644-1.175a11.65,11.65,0,0,0-3.1-.966,13.6,13.6,0,0,1-3.853-1.407,2.453,2.453,0,0,1-.828-3.424,3,3,0,0,1,2.851-1.144,29.589,29.589,0,0,1,8.993,3.149,28.455,28.455,0,0,1,4.249,2.928,40.8,40.8,0,0,1,4.335,4.133,41.032,41.032,0,0,1,2.79,3.891l.324.518a34.862,34.862,0,0,1,3.106,7.882c.3,1.19.717,2.5-.128,3.682-.414.579-.89,1.127-1.742.882l-.729-.04c-.686.4-1.066-.192-1.385-.548a2.1,2.1,0,0,1-.753-2.1l-.138-.373q-.2-.788-.394-1.575l-.314-.553q-.112-.639-.226-1.279l0-.049c-1.347-2.238-2.677-4.485-4.051-6.7a5.887,5.887,0,0,0-1.154-1.317C61.1,27.626,59.4,26.219,57.7,24.8l-.128-.137" fill="#fff"/>
      </g>
    </g>
  </g>
</svg>
